 <svg version="1.0" xmlns="http://www.w3.org/2000/svg"  width="300.000000pt" height="300.000000pt" viewBox="0 0 300.000000 300.000000"  preserveAspectRatio="xMidYMid meet">  <g transform="translate(0.000000,300.000000) scale(0.050000,-0.050000)" fill="#000000" stroke="none"> <path d="M3018 5155 c-78 -39 -96 -42 -143 -19 -76 36 -146 11 -238 -84 -58 -60 -71 -84 -48 -88 27 -6 27 -13 1 -64 -38 -73 -37 -80 2 -80 27 0 30 -15 19 -90 -17 -117 5 -113 79 12 90 151 130 182 130 100 0 -327 404 -484 629 -244 72 77 87 56 90 -123 0 -63 9 -115 18 -115 20 0 63 90 63 132 0 22 12 27 40 18 35 -11 40 -4 40 68 0 64 6 78 30 69 37 -14 37 18 1 119 -35 99 -86 154 -142 154 -30 0 -48 15 -56 47 -49 192 -315 289 -515 188z m323 -20 c319 -161 190 -635 -166 -610 -140 9 -208 54 -270 175 -147 287 147 581 436 435z m-455 -26 c40 -16 -21 -124 -154 -271 l-97 -108 15 68 c12 58 10 66 -18 56 -48 -19 -39 15 23 88 52 63 53 65 10 53 -60 -15 -57 -2 17 67 60 56 135 73 204 47z m776 -269 c53 -73 76 -180 31 -143 -30 25 -32 20 -20 -70 10 -80 8 -93 -14 -72 -41 38 -56 31 -63 -30 -7 -56 -59 98 -59 175 0 180 53 239 125 140z"/> <path d="M3045 5100 c-172 -105 -196 -326 -49 -463 47 -44 102 -77 128 -77 35 1 25 10 -39 39 -151 69 -207 234 -128 380 99 186 369 184 483 -4 22 -36 40 -53 40 -38 0 153 -280 258 -435 163z"/> <path d="M3200 5035 c0 -14 -20 -34 -45 -45 -70 -31 -68 -99 4 -152 81 -60 77 -83 -12 -75 -81 8 -116 -31 -48 -53 23 -7 41 -26 41 -41 0 -36 32 -38 54 -4 9 14 34 35 56 47 64 35 61 99 -9 150 -77 58 -78 86 -2 71 79 -16 95 17 38 77 -52 55 -77 63 -77 25z"/> <path d="M4894 5107 c-8 -8 -14 -32 -14 -55 -1 -128 -153 -339 -202 -279 -105 126 -375 104 -487 -39 l-47 -61 -62 98 c-58 90 -102 204 -102 264 0 64 -39 15 -51 -64 -10 -68 -20 -85 -44 -76 -24 9 -28 -3 -22 -62 6 -51 1 -73 -17 -73 -21 0 -20 -16 5 -75 46 -113 115 -173 198 -173 63 0 71 -6 71 -53 0 -29 20 -83 45 -119 183 -269 564 -180 626 146 9 50 24 74 47 74 54 0 120 57 162 141 48 93 51 127 10 112 -25 -10 -27 -5 -10 26 36 68 26 125 -20 111 -34 -11 -40 -4 -40 54 -1 71 -24 125 -46 103z m57 -199 c40 15 37 -47 -4 -107 -33 -46 -32 -47 10 -36 55 14 54 -3 -2 -86 -70 -103 -148 -114 -185 -26 -28 68 -27 73 29 144 32 40 70 114 84 163 l27 90 6 -77 c5 -56 14 -73 35 -65z m-926 -98 c18 -33 49 -78 70 -101 28 -29 36 -60 30 -105 -18 -121 -167 -77 -244 73 -22 43 -21 46 17 34 43 -14 56 7 24 40 -45 48 -47 113 -4 100 37 -12 42 -5 44 53 1 61 3 63 17 16 8 -28 29 -77 46 -110z m575 -15 c292 -155 162 -598 -166 -569 -310 27 -387 434 -109 572 109 54 168 53 275 -3z"/> <path d="M4316 4769 c-30 -16 -65 -50 -78 -74 l-23 -45 47 43 c70 62 127 87 198 87 71 0 128 -25 198 -87 l47 -43 -23 45 c-51 97 -249 137 -366 74z"/> <path d="M4420 4700 c0 -11 -19 -39 -41 -61 -54 -54 -43 -81 47 -126 91 -45 94 -68 11 -77 -72 -7 -105 -56 -39 -56 23 0 42 -9 42 -20 0 -39 50 -17 96 41 60 75 44 129 -47 159 -85 28 -90 60 -9 60 40 0 60 10 60 30 0 17 -18 30 -40 30 -22 0 -40 9 -40 20 0 11 -9 20 -20 20 -11 0 -20 -9 -20 -20z"/> <path d="M4192 4608 c-38 -99 8 -237 103 -304 67 -48 185 -77 185 -46 0 12 -27 22 -60 22 -113 0 -210 115 -210 248 0 124 0 126 -18 80z"/> <path d="M1634 4468 c-115 -27 -250 -126 -226 -164 5 -9 -4 -43 -20 -75 -31 -59 -3 -229 38 -229 9 0 12 -8 6 -17 -15 -24 73 -124 113 -130 17 -3 45 -17 63 -31 17 -15 45 -21 62 -15 16 7 50 4 75 -6 25 -10 33 -19 19 -20 -113 -5 -431 -238 -495 -363 -52 -101 -20 -298 54 -322 15 -5 3 -38 -32 -91 -48 -73 -61 -81 -95 -63 -47 25 -37 34 -132 -113 -43 -66 -120 -165 -171 -222 -115 -128 -125 -104 89 -227 155 -89 180 -111 171 -147 -6 -24 -17 -82 -25 -129 l-13 -86 207 14 c365 25 326 38 341 -112 34 -354 40 -626 13 -643 -20 -12 -20 -16 -1 -17 39 0 29 -40 -10 -42 -22 -1 -17 -7 15 -16 59 -16 65 -58 14 -90 -67 -41 -99 35 -83 198 8 77 22 146 33 152 11 7 1 17 -22 23 -52 14 -51 15 -83 -150 -44 -225 60 -356 183 -233 55 55 253 62 281 11 13 -22 6 -37 -24 -54 -23 -12 -38 -27 -32 -32 5 -6 28 0 51 12 28 15 42 15 42 2 0 -12 -9 -21 -20 -21 -11 0 -20 -9 -20 -21 0 -14 12 -14 39 0 54 29 70 26 42 -8 -20 -24 -15 -28 29 -25 36 3 64 -11 84 -41 30 -44 29 -45 -32 -45 -138 0 -300 106 -304 198 -2 33 -9 20 -21 -38 -20 -104 44 -182 183 -220 229 -64 302 68 110 200 -146 100 -141 67 -134 869 7 729 18 831 88 831 25 0 19 -24 -14 -60 -23 -26 -33 -107 -40 -352 -6 -175 -15 -444 -20 -598 l-9 -280 50 80 c27 44 49 67 50 50 1 -16 14 11 28 60 15 50 60 169 100 265 126 302 120 660 -21 1177 -7 25 11 36 73 46 68 11 80 19 69 48 -26 62 -49 173 -50 239 l0 65 1345 -9 1344 -8 36 -44 c31 -38 35 -90 35 -421 l0 -378 -288 0 c-373 0 -379 -4 -378 -240 1 -221 -1 -219 345 -222 149 -2 282 -1 296 1 19 2 25 -87 25 -387 l0 -389 -53 -42 c-83 -65 -2851 -65 -2934 0 -41 32 -50 34 -41 10 27 -68 83 -71 1523 -71 l1438 0 49 52 c47 50 48 60 54 433 6 377 7 382 55 420 74 57 74 334 0 402 -48 44 -49 52 -55 427 -5 330 -11 387 -41 421 -19 21 -35 61 -35 89 0 28 -20 76 -44 106 l-44 56 -295 -13 -295 -13 30 72 c29 70 29 71 -13 58 -35 -12 -41 -7 -32 23 30 100 34 144 16 155 -11 7 -26 4 -33 -8 -25 -40 -50 -18 -50 45 -1 170 -41 197 -75 52 -40 -167 -107 -293 -134 -249 -192 324 -531 387 -785 147 l-63 -60 -42 67 c-45 73 -121 299 -121 359 0 150 -66 -7 -69 -164 l-1 -73 -55 29 c-65 33 -75 -22 -27 -157 26 -72 25 -74 -12 -54 -22 12 -44 16 -50 10 -26 -26 134 -312 175 -312 11 0 -1 29 -28 65 -48 64 -113 182 -113 205 0 6 17 2 39 -9 67 -37 81 -23 43 44 -21 36 -43 94 -49 130 l-12 66 59 -31 60 -31 2 125 1 126 46 -134 c24 -74 67 -169 93 -210 49 -76 49 -76 14 -176 -19 -55 -35 -119 -35 -142 -1 -39 -13 -42 -186 -45 -102 -2 -200 -9 -218 -14 -26 -8 -24 7 15 84 54 105 60 218 20 331 -27 75 -27 75 51 140 87 74 130 196 69 196 -18 0 -38 -13 -44 -28 -6 -15 -26 -24 -44 -19 -52 13 -137 -111 -193 -281 -85 -261 -89 -264 -241 -179 -74 41 -124 54 -223 55 -138 2 -157 22 -85 89 33 31 37 47 20 78 -11 22 -14 46 -7 53 8 8 3 21 -10 29 -18 11 -19 33 -6 79 13 44 11 78 -6 109 -54 101 -99 155 -130 155 -18 0 -59 14 -90 30 -32 17 -59 29 -60 28 -2 -1 -55 -14 -119 -30z m1228 -253 c-33 -86 -202 -196 -202 -132 0 38 61 95 90 84 14 -5 45 19 70 53 51 71 70 69 42 -5z m-1162 -33 c0 -54 -56 -97 -72 -54 -7 17 -7 46 -1 62 17 43 73 37 73 -8z m332 -157 c13 -64 -5 -79 -77 -67 -8 1 -15 -7 -15 -18 0 -11 8 -20 18 -20 10 0 21 -36 25 -80 7 -72 3 -80 -37 -80 -59 0 -147 41 -134 63 6 10 18 13 28 7 28 -17 46 109 20 140 -18 22 -14 38 19 73 23 25 41 59 39 76 -6 65 4 69 52 21 27 -28 55 -79 62 -115z m1778 -20 c167 -83 265 -270 237 -450 -11 -70 -65 -109 -69 -50 -1 20 -3 20 -11 0 -26 -64 -204 -30 -211 40 -5 55 -20 71 -92 105 -108 50 -107 103 2 94 63 -5 74 0 74 35 0 28 -13 41 -40 41 -22 0 -40 13 -40 30 0 17 -18 30 -40 30 -22 0 -40 -8 -40 -18 0 -11 -26 -45 -59 -78 -78 -78 -63 -134 52 -190 119 -57 117 -103 -3 -89 -49 6 -90 2 -90 -7 0 -26 -195 -22 -211 4 -22 35 -16 208 9 255 15 27 16 43 3 43 -30 0 -51 -95 -48 -216 3 -136 -40 -131 -49 6 -21 328 332 562 626 415z m447 -125 c8 0 26 11 39 24 36 36 31 -60 -6 -131 -39 -74 -38 -79 9 -54 60 33 64 26 29 -44 -55 -110 -129 -175 -197 -175 l-62 0 12 125 c7 74 29 154 54 195 23 39 54 111 68 160 l27 90 6 -95 c3 -52 13 -95 21 -95z m-1539 97 c118 -337 -131 -585 -406 -404 l-78 51 15 -47 c8 -26 21 -119 30 -207 9 -88 22 -175 30 -194 12 -27 -1 -36 -62 -48 -126 -23 -346 -104 -460 -168 -128 -72 -138 -51 -54 115 50 98 51 107 20 141 -48 53 -42 62 47 76 45 7 87 22 93 34 35 56 -157 102 -209 50 -19 -19 -24 -19 -24 0 0 81 -145 7 -198 -101 -23 -47 -59 -107 -80 -134 l-38 -49 -42 69 c-49 80 -52 135 -15 225 65 155 459 425 550 376 80 -43 235 -29 193 18 -66 73 172 56 327 -23 150 -78 177 -63 233 128 54 184 88 208 128 92z m2219 -372 c56 -48 84 -157 34 -138 -19 7 -196 13 -395 13 l-360 0 57 68 c57 68 58 68 257 76 110 4 237 9 283 12 54 3 97 -8 124 -31z m-1802 -100 c6 -19 -58 -25 -277 -25 -287 0 -351 19 -141 42 184 21 409 11 418 -17z m-1305 -144 c40 -17 40 -17 0 -30 -22 -8 -61 -23 -86 -33 -66 -26 -94 -2 -52 44 36 40 73 45 138 19z m-174 -83 c33 -51 9 -84 -99 -139 l-75 -39 29 83 c25 72 75 134 109 136 6 1 22 -18 36 -41z m-176 -107 c-16 -48 -35 -71 -61 -71 -35 0 -34 7 16 78 65 92 77 90 45 -7z m235 -78 c-23 -45 -44 -86 -47 -90 -3 -4 -12 26 -19 66 -16 86 36 168 83 129 21 -17 18 -37 -17 -105z m-76 -168 c1 -64 0 -65 -91 -65 -80 0 -90 5 -79 35 8 19 24 73 36 119 49 182 130 128 134 -89z m-199 126 c0 -132 -84 -198 -176 -139 -27 17 104 162 137 153 22 -5 39 -12 39 -14z m54 1 c-6 -15 -22 -65 -36 -110 -13 -45 -31 -82 -39 -82 -7 0 1 49 19 110 17 60 40 110 49 110 10 0 12 -13 7 -28z m-290 -174 c-5 -22 -1 -23 17 -4 32 30 205 -50 190 -88 -5 -14 -2 -26 8 -26 10 0 22 11 27 25 5 14 13 21 19 15 6 -5 -27 -138 -73 -294 l-83 -284 -190 111 c-104 61 -210 124 -235 140 l-46 29 89 99 c49 54 122 149 163 210 66 100 130 137 114 67z m537 -63 c2 -41 3 -42 17 -6 11 27 19 31 30 14 12 -20 192 -631 192 -653 0 -45 -153 -90 -312 -92 -98 -1 -257 -7 -353 -15 -150 -11 -173 -9 -166 17 5 16 15 64 22 106 l14 75 67 -39 c67 -40 68 -40 155 -1 l87 38 14 253 c13 223 10 257 -20 290 -33 37 -31 38 69 38 69 0 103 -8 104 -25 0 -14 9 -9 21 10 28 49 58 44 59 -10z m-254 -220 c-16 -305 -21 -324 -89 -350 -47 -18 -59 -17 -53 1 5 13 40 134 77 269 81 291 76 286 65 80z m3672 -74 c38 -71 26 -276 -19 -321 -45 -45 -603 -61 -681 -19 -46 24 -58 312 -15 355 46 46 690 33 715 -15z m-3569 -1199 c-9 -92 -6 -152 10 -182 13 -24 19 -48 13 -54 -40 -40 -75 126 -51 246 33 167 46 163 28 -10z m510 -463 c50 -14 78 -29 63 -34 -39 -14 -198 35 -254 79 -77 61 -57 82 26 28 41 -27 116 -60 165 -73z"/> <path d="M3440 3961 c-68 -36 -161 -121 -132 -121 8 0 50 29 93 63 154 124 404 85 514 -81 25 -37 45 -57 45 -44 0 162 -337 280 -520 183z"/> <path d="M2123 3268 c-36 -73 -61 -137 -55 -142 5 -6 42 54 81 132 39 78 64 142 56 142 -9 0 -46 -60 -82 -132z"/> <path d="M1770 2670 c18 -184 80 -541 85 -490 3 28 -17 172 -44 320 -28 149 -46 225 -41 170z"/> <path d="M4510 2420 c-74 -81 48 -194 126 -116 37 37 29 112 -15 135 -54 29 -70 27 -111 -19z"/> <path d="M4727 4069 c-7 -18 -3 -41 9 -53 31 -31 84 -4 84 43 0 50 -75 57 -93 10z"/> <path d="M3213 2638 c-53 -66 -91 -126 -85 -133 7 -6 15 -8 18 -3 3 4 42 53 87 108 95 119 115 150 93 150 -9 0 -60 -55 -113 -122z"/> <path d="M4128 2709 c-48 -73 -20 -83 31 -10 24 33 34 61 23 61 -12 0 -36 -23 -54 -51z"/> <path d="M3923 2457 c-70 -88 -121 -165 -115 -172 7 -6 15 -8 18 -3 4 4 62 77 130 161 68 85 124 159 124 165 0 35 -43 -6 -157 -151z"/> <path d="M2983 2349 c-108 -137 -99 -165 10 -34 94 113 115 145 93 145 -9 0 -56 -50 -103 -111z"/> <path d="M3662 2132 c-99 -124 -130 -180 -75 -134 51 42 216 262 196 262 -11 0 -65 -58 -121 -128z"/> <path d="M2789 2109 c-41 -49 -70 -95 -64 -100 5 -6 48 35 94 90 47 56 75 101 64 101 -11 0 -54 -41 -94 -91z"/> <path d="M3850 2037 c-141 -179 -154 -197 -136 -197 17 0 246 270 246 290 0 30 -39 -3 -110 -93z"/> <path d="M3543 1657 c-70 -88 -122 -164 -117 -169 9 -10 274 299 274 320 0 35 -42 -6 -157 -151z"/> <path d="M3429 1138 c-23 -37 25 -68 61 -38 25 21 27 30 6 43 -35 22 -51 21 -67 -5z"/> <path d="M3230 1056 c-141 -39 -488 -43 -575 -6 -20 8 -35 6 -35 -6 0 -79 683 -49 766 34 27 27 18 26 -156 -22z"/> <path d="M3370 997 c-210 -69 -560 -71 -808 -4 -31 9 -44 6 -36 -7 65 -105 892 -76 1002 34 29 29 -20 22 -158 -23z"/> </g> </svg> 